{"title":"Outcasts S01E01 HDTV XviD-FOV","uid":6158539,"size":577094199,"categoryP":"video","categoryS":"tv_shows","magnet":"?xt=urn:btih:5458461817e89edf37ab20fe0bf84c50c216523c&amp;dn=Outcasts+S01E01+HDTV+XviD-FOV&amp;tr=udp%3A%2F%2Ftracker.openbittorrent.com%3A80&amp;tr=udp%3A%2F%2Fopen.demonii.com%3A1337&amp;tr=udp%3A%2F%2Ftracker.coppersurfer.tk%3A6969&amp;tr=udp%3A%2F%2Fexodus.desync.com%3A6969","seeders":1,"leechers":1,"uploader":"TheCloon","files":-1,"time":1297126000,"description":"Outcasts S01E01 HDTV XviD-FOV\n\n\n[code]\nFormat                           : AVI\nFormat/Info                      : Audio Video Interleave\nFile size                        : 550 MiB\nDuration                         : 59mn 14s\nOverall bit rate                 : 1 299 Kbps\nWriting application              : transcode-1.1.5\n\nVideo\nID                               : 0\nFormat                           : MPEG-4 Visual\nFormat profile                   : Advanced Simple@L5\nFormat settings, BVOP            : 2\nFormat settings, QPel            : No\nFormat settings, GMC             : No warppoints\nFormat settings, Matrix          : Default (H.263)\nCodec ID                         : XVID\nCodec ID/Hint                    : XviD\nDuration                         : 59mn 14s\nBit rate                         : 1 156 Kbps\nWidth                            : 624 pixels\nHeight                           : 352 pixels\nDisplay aspect ratio             : 16:9\nFrame rate                       : 25.000 fps\nColor space                      : YUV\nChroma subsampling               : 4:2:0\nBit depth                        : 8 bits\nScan type                        : Progressive\nCompression mode                 : Lossy\nBits/(Pixel*Frame)               : 0.211\nStream size                      : 490 MiB (89%)\nWriting library                  : XviD 1.2.1 (UTC 2008-12-04)\n\nAudio\nID                               : 1\nFormat                           : MPEG Audio\nFormat version                   : Version 1\nFormat profile                   : Layer 3\nMode                             : Joint stereo\nMode extension                   : MS Stereo\nCodec ID                         : 55\nCodec ID/Hint                    : MP3\nDuration                         : 59mn 14s\nBit rate mode                    : Variable\nBit rate                         : 112 Kbps\nChannel(s)                       : 2 channels\nSampling rate                    : 48.0 KHz\nCompression mode                 : Lossy\nStream size                      : 54.8 MiB (10%)\nAlignment                        : Aligned on interleaves\nInterleave, duration             : 24 ms (0.60 video frame)\n[/code]\n\nPlot:\nThe arrival of the last known transporter from Earth gives some new hope for the residents of Carpathia. Loyalties end up being tested though as the head of \nForthaven's expeditionaries attempts to break away from the settlement.\n &lt;a href=&quot;\nhttp://www.tvrage.com/shows/id-26356&quot; rel=&quot;nofollow&quot; target=&quot;_NEW&quot;&gt;\nhttp://www.tvrage.com/shows/id-26356&lt;/a&gt; ","torrent":{"xt":"urn:btih:5458461817e89edf37ab20fe0bf84c50c216523c","amp;dn":"Outcasts+S01E01+HDTV+XviD-FOV","amp;tr":["udp%3A%2F%2Ftracker.openbittorrent.com%3A80","udp%3A%2F%2Fopen.demonii.com%3A1337","udp%3A%2F%2Ftracker.coppersurfer.tk%3A6969","udp%3A%2F%2Fexodus.desync.com%3A6969"],"infoHash":"5458461817e89edf37ab20fe0bf84c50c216523c","infoHashBuffer":{"type":"Buffer","data":[84,88,70,24,23,232,158,223,55,171,32,254,11,248,76,80,194,22,82,60]},"announce":[],"urlList":[]}}